<svg width="21" height="24" fill="none" xmlns="http://www.w3.org/2000/svg"><g clip-path="url(#clip0_1_104)"><path d="M6 1.875a1.874 1.874 0 113.75 0v6.947a2.253 2.253 0 013.61.89 2.25 2.25 0 013.886 1.364A2.25 2.25 0 0121 12.75v5.251a6 6 0 01-6.001 6h-3.998a4.75 4.75 0 01-.69-.047A9.39 9.39 0 013.75 20.25l-3.375-4.5a1.872 1.872 0 01.375-2.625 1.872 1.872 0 012.625.375L6 17.002V1.875zm5.25 12.375a.752.752 0 00-.75-.75.752.752 0 00-.75.75v4.5c0 .413.338.75.75.75s.75-.337.75-.75v-4.5zm2.25-.75a.752.752 0 00-.75.75v4.5c0 .413.338.75.75.75s.75-.337.75-.75v-4.5a.752.752 0 00-.75-.75zm3.75.75a.752.752 0 00-.75-.75.752.752 0 00-.75.75v4.5c0 .413.337.75.75.75s.75-.337.75-.75v-4.5z" fill="#1A3E3E"/></g><defs><clipPath id="clip0_1_104"><path fill="#fff" d="M0 0h21v24H0z"/></clipPath></defs></svg>